<svg style="background-color:#000;" width="151.09575mm" height="35.799999mm" viewBox="0 0 151.09575 35.799999" version="1.1" id="svg8">
    <defs id="defs2">
        <linearGradient id="linearGradient2886">
        <stop style="stop-color:#ffffff;stop-opacity:1;" offset="0" id="stop2882"/>
        <stop style="stop-color:#ffffff;stop-opacity:0;" offset="1" id="stop2884"/>
        </linearGradient>
        <linearGradient id="linearGradient912">
        <stop style="stop-color:#000000;stop-opacity:1;" offset="0" id="stop910"/>
        </linearGradient>
        <clipPath clipPathUnits="userSpaceOnUse" id="clipPath1822">
        <path id="path1824" style="fill:#ff0000;fill-opacity:1;fill-rule:nonzero;stroke:none;stroke-width:0.264583" d="m 66.723575,47.392455 v 0.559657 h 5.132504 c -0.0024,-0.02103 -0.0049,-0.04203 -0.0072,-0.06305 -0.0043,-0.04263 -0.0127,-0.08475 -0.01498,-0.127643 -0.0044,-0.05484 -0.01794,-0.1091 -0.01963,-0.16433 -0.0021,-0.05641 -0.0085,-0.112432 -0.0072,-0.168981 0.0047,-0.07381 0.0019,-0.05291 5.29e-4,-0.03566 z m 6.549988,0 c 0.0037,0.02806 0.0073,0.05617 0.01035,0.08423 0.0029,0.02713 0.0037,0.05453 0.0067,0.08165 0.006,0.05372 0.01365,0.107064 0.02016,0.160713 0.0049,0.04059 0.0079,0.08153 0.01394,0.121957 0.0056,0.03723 0.01275,0.07414 0.01963,0.111104 h 13.09946 c 1.48e-4,-0.005 1.99e-4,-0.01005 5.29e-4,-0.01497 2.36e-4,-0.02344 -5.29e-4,-0.04684 -5.29e-4,-0.07028 -5.29e-4,-0.02045 -7.93e-4,-0.04104 -0.0011,-0.0615 -7.94e-4,-0.02267 -0.0013,-0.045 -0.0016,-0.0677 -5.29e-4,-0.01669 -0.0016,-0.03342 -0.0011,-0.05013 7.94e-4,-0.02199 -0.0016,-0.04413 5.29e-4,-0.06615 5.29e-4,-0.01527 5.29e-4,-0.03079 -0.0016,-0.04599 -0.0011,-0.01693 -0.0019,-0.03367 -0.0021,-0.05064 5.29e-4,-0.01842 -5.29e-4,-0.03697 -0.0026,-0.05529 -0.0011,-0.02156 -0.0016,-0.04303 0,-0.0646 5.29e-4,-0.0041 -2.59e-4,-0.0083 0,-0.01241 z m 13.774354,0 c 0.0013,0.0099 0.0038,0.02043 0.0047,0.02791 0.0019,0.02503 0.0033,0.05036 0.0036,0.07545 2.01e-4,0.02013 -0.0071,0.144778 -0.0072,0.147278 -0.0044,0.05796 -0.0091,0.115713 -0.01394,0.173633 -1.27e-4,0.04527 -0.0034,0.09036 -0.0067,0.135392 h 0.675928 c -0.0035,-0.05537 -2.14e-4,-0.110529 0.0026,-0.16588 -0.01061,-0.121015 -0.01902,-0.241943 -0.02479,-0.363286 5.8e-5,-0.01008 5.29e-4,-0.02029 5.29e-4,-0.03049 z m 1.284676,0 c 1.56e-4,0.02582 -2.64e-4,0.05174 0.0011,0.07752 5.3e-4,0.03518 0.0019,0.07027 0.0036,0.105421 5.29e-4,0.03401 0.0027,0.06782 0.0041,0.101803 -5.29e-4,0.02995 7.93e-4,0.05996 0,0.08992 -0.0033,0.02405 -7.94e-4,0.0478 5.29e-4,0.07183 5e-6,0.02524 7.94e-4,0.05074 0.0021,0.07596 5.29e-4,0.01241 5.29e-4,0.02479 5.29e-4,0.03721 h 11.857669 c 1.8e-4,-0.0053 2e-5,-0.01066 5.3e-4,-0.01603 0.001,-0.01749 2.7e-4,-0.03525 0.002,-0.05271 10e-4,-0.01566 9e-5,-0.03132 5.3e-4,-0.04702 5e-5,-0.01696 0.001,-0.03417 0.001,-0.05116 5.3e-4,-0.01508 5.3e-4,-0.02988 10e-4,-0.04496 2.4e-4,-0.0177 2.6e-4,-0.03554 0.001,-0.05323 0,-0.0199 0.001,-0.03955 0.002,-0.05943 5.3e-4,-0.01789 5.3e-4,-0.03585 0,-0.05374 2.6e-4,-0.02384 7.9e-4,-0.04748 0.001,-0.07131 2e-4,-0.02156 -2.7e-4,-0.04308 5.3e-4,-0.0646 0.001,-0.01508 -0.001,-0.03026 0.003,-0.04548 z m 12.482957,0 c -2.2e-4,0.0074 -6e-5,0.01482 -5.3e-4,0.02222 -0.002,0.09633 -0.006,0.192601 -0.01,0.288872 0.002,0.0051 0.003,0.01029 0.004,0.0155 10e-4,0.0053 0.003,0.01061 0.003,0.01603 5.3e-4,0.02276 -0.006,0.04455 -0.0109,0.06666 -2.2e-4,0.0045 -1e-4,0.009 -5.3e-4,0.01344 -0.007,0.119772 -0.004,0.08125 -0.009,0.136943 h 0.62632 c -5.3e-4,0.0044 -0.002,0.01648 0.003,-0.03462 0.006,-0.06548 0.0126,-0.13095 0.0196,-0.196371 0.004,-0.0374 0.007,-0.06722 0.0104,-0.09767 -10e-6,-2.64e-4 1e-5,-7.93e-4 0,-0.0011 -5.3e-4,-0.01463 0.001,-0.02929 -0.002,-0.04392 -0.002,-0.06204 -0.005,-0.124037 -0.008,-0.186037 z m 0.71159,0 c 10e-4,0.0026 0.003,0.0019 0.005,0.0052 0.0111,-2.62e-4 0.0223,0.0057 0.0336,0.0088 0.002,0.0026 0.003,0.0052 0.005,0.0078 4e-5,-1.62e-4 -4e-5,-0.0016 0,-0.0016 0.005,-0.005 0.007,-0.0031 0.0109,-0.0067 5.3e-4,-0.0044 2.6e-4,-0.0061 0.001,-0.01188 4e-5,-5.29e-4 -3e-5,-0.0011 0,-0.0016 z m 0.13229,0 c 5.3e-4,0.0045 0.003,0.0084 0.003,0.01291 0.005,-0.0011 0.01,-0.0024 0.015,-0.0031 -1.5e-4,-0.0033 3e-5,-0.0065 0,-0.0098 z m 0.23771,0 c 7.9e-4,0.0013 0.002,7.94e-4 0.003,0.0021 -1.4e-4,-7.94e-4 9e-5,-0.0013 0,-0.0021 h -5.3e-4 z m 0.003,0 c 2.6e-4,7.94e-4 5.3e-4,0.0013 0.001,0.0031 -2.4e-4,-5.29e-4 -7.9e-4,-5.29e-4 -0.001,-0.0011 2.6e-4,0.0021 5.3e-4,0.0042 0.001,0.0062 -1.8e-4,-0.0013 5.3e-4,-0.0024 5.3e-4,-0.0036 0.001,0.0024 0.002,0.0038 0.004,0.0062 -2.6e-4,-0.0036 -5.3e-4,-0.0072 -0.001,-0.01085 z m 0.10025,0 c 0.002,0.02045 0.003,0.04113 0.005,0.0615 0.002,0.02154 0.003,0.04297 0.004,0.0646 0,0.02204 0.002,0.04415 0.003,0.06614 -1.2e-4,0.01958 -2.7e-4,0.03881 5.3e-4,0.05839 0,0.02215 0.001,0.04451 0.001,0.06666 0,0.02519 -0.002,0.05029 -0.003,0.07545 -0.001,0.02117 -0.002,0.04189 -0.003,0.06305 -0.001,0.02233 0.001,0.04485 -0.002,0.06718 5.2e-4,0.01225 -5.3e-4,0.02447 -0.001,0.03669 h 15.5577 v -0.559657 z m -15.26212,0.481108 c -0.0013,0.0082 -0.0028,0.01677 -0.0041,0.02479 -1.25e-4,0.0016 -1.06e-4,0.003 -5.3e-4,0.0047 -8.7e-5,5.29e-4 -5.29e-4,0.0011 -5.29e-4,0.0016 v 5.3e-4 c -2.64e-4,0.0043 0.0024,0.01161 -0.0016,0.01188 h -5.29e-4 c -0.0011,0.0074 -0.0013,0.0149 -0.0036,0.02222 -0.01601,-0.0066 -0.03197,-0.01325 -0.04806,-0.01963 -0.0039,0.0086 -0.0094,0.01656 -0.01394,0.02479 -0.0109,-0.0053 -0.02122,-0.01138 -0.03256,-0.01603 1.1e-5,0.0079 -4.2e-5,0.0158 0,0.02379 h 0.101285 c 7.94e-4,-0.0062 0.0019,-0.01241 0.0026,-0.0186 7.94e-4,-0.01998 0.0011,-0.03995 0.0016,-0.05995 z m 1.110525,0.03979 c -0.0016,0.01238 -0.003,0.02545 -0.0052,0.03876 h 0.02016 c 5.29e-4,-0.01037 0.0011,-0.02098 0.0016,-0.02997 -0.0059,-0.0021 -0.01069,-0.0064 -0.01654,-0.0088 z"/>
        </clipPath>
        <linearGradient id="linearGradient2866" x1="65.837143" y1="45.42947" x2="51.748081" y2="45.495621" gradientUnits="userSpaceOnUse" gradientTransform="matrix(2.1806348,0,0,2.1806348,-88.379175,-52.054441)"/>
        <linearGradient id="linearGradient2888" gradientUnits="userSpaceOnUse" x1="65.782028" y1="42.895573" x2="51.692966" y2="42.96172" gradientTransform="matrix(2.1806348,0,0,2.1806348,-88.379175,-52.054441)"/>
        <linearGradient id="linearGradient2896" x1="65.837143" y1="45.42947" x2="51.748081" y2="45.495621" gradientUnits="userSpaceOnUse" gradientTransform="matrix(2.1806348,0,0,2.1806348,-88.379175,-52.054441)"/>
        <linearGradient id="linearGradient2909" x1="82.829567" y1="40.566143" x2="66.690361" y2="40.518871" gradientUnits="userSpaceOnUse"/>
        <linearGradient id="linearGradient2917" x1="82.731125" y1="47.672245" x2="66.724258" y2="47.625" gradientUnits="userSpaceOnUse"/>
        <clipPath clipPathUnits="userSpaceOnUse" id="clipPath514">
        <path id="path516" style="fill:#ff0000;fill-opacity:1;fill-rule:nonzero;stroke:none;stroke-width:0.264583" d="m 24.342183,40.978378 v 1.158068 h 7.70134 c -0.0047,-0.06097 -0.0091,-0.121983 -0.0036,-0.183451 0.008,-0.09704 0.0043,-0.193411 -0.0052,-0.290423 -0.0028,-0.1221 -0.0021,-0.243498 -0.01241,-0.365352 7.94e-4,-0.105783 0.0033,-0.211529 0.0016,-0.317291 -4e-5,-2.65e-4 4e-5,-0.0013 0,-0.0016 z m 8.571052,0 c 0.0077,0.108289 0.01005,0.217234 0.0093,0.325562 0.01548,0.112086 0.01434,0.225121 0.01704,0.337963 0.01392,0.126868 0.01259,0.253812 0.0031,0.380854 5.3e-4,0.03796 0.0048,0.07586 0.0078,0.113689 h 2.605008 c 1.56e-4,-0.03601 -0.0013,-0.07206 0.0016,-0.108003 0.003,-0.07485 0.007,-0.149415 0.0021,-0.224276 -0.0044,-0.106119 -0.0021,-0.211794 5.29e-4,-0.31781 -0.0096,-0.126465 -0.0062,-0.252598 -0.0062,-0.379307 0.0024,-0.04284 0.0016,-0.08577 0.0026,-0.128672 z m 3.697968,0 c -0.0021,0.06168 -0.0035,0.123407 -0.0067,0.185 0.0088,0.07657 -0.01394,0.156249 -0.0011,0.232029 0.0084,0.120303 -0.01146,0.240059 -0.0047,0.360185 0.0065,0.104706 -5.29e-4,0.209566 -0.0047,0.314193 -0.0016,0.0222 -0.0016,0.04445 -0.0026,0.06666 h 6.192385 c -0.01548,-0.386 -0.0245,-0.771916 -0.02894,-1.158068 z m 7.042462,0 c 0.0084,0.116171 0.01998,0.232302 0.03101,0.348298 0.01834,0.129722 0.0032,0.261276 0.01291,0.391192 0.01069,0.107889 0.01349,0.216627 0.01498,0.325043 0.0011,0.0311 0.0029,0.06239 0.0047,0.09354 H 55.07001 v -1.158068 z"/>
        </clipPath>
        <clipPath clipPathUnits="userSpaceOnUse" id="clipPath524">
        <path id="path526" style="fill:#ff0000;fill-opacity:1;fill-rule:nonzero;stroke:none;stroke-width:0.264583" d="m 24.462072,46.503622 v 1.158068 h 7.682737 c 0.0024,-0.03427 7.93e-4,-0.04064 0.0021,-0.04082 -0.01471,-0.135014 -0.0072,-0.270539 -0.02223,-0.405662 7.94e-4,-0.09759 -0.0047,-0.194987 -0.0083,-0.292489 -0.0042,-0.11857 0.0046,-0.235712 0.0072,-0.353983 -0.0016,-0.02167 -5.29e-4,-0.04342 -0.0016,-0.06511 z m 8.555552,0 c 0.01159,0.127733 -0.01423,0.254627 -0.0072,0.381889 0.0044,0.111829 0.0074,0.223467 0.0067,0.33538 0.0013,0.01318 0.0024,0.02611 0.0036,0.03927 0.0075,0.07559 0.0048,0.01008 0.0083,0.150898 7.94e-4,0.0313 0.0027,0.125356 0.0026,0.09405 0.0011,0.05195 0.0016,0.104378 0.0011,0.156578 h 2.610692 c -0.0054,-0.08178 -0.0072,-0.163489 -0.0093,-0.245462 -0.0011,-0.08944 -0.0061,-0.172813 -0.01188,-0.263033 0.0032,-0.139544 0.01294,-0.168145 0.0057,-0.248565 1.01e-4,-0.109281 0.0028,-0.218356 0.0016,-0.327629 5.29e-4,-0.02447 0.0011,-0.04892 0.0011,-0.07338 z m 3.515029,0 c -0.0016,0.02978 -0.0021,0.05958 -0.0026,0.0894 0.0011,0.104285 -0.0078,0.208388 -0.0078,0.312642 0.0019,0.08934 -0.01659,0.176546 -0.0181,0.265618 0.0016,0.07833 -0.0051,0.156787 -0.0041,0.235127 0.0033,0.07031 -0.0096,0.140819 -0.0026,0.210839 7.94e-4,0.01484 -0.0011,0.02962 -0.0011,0.04444 h 6.302976 c 0.0011,-0.193075 0.0047,-0.386191 0.0047,-0.579292 0.0016,-0.114689 0.008,-0.229066 0.01085,-0.343649 0.0011,-0.07677 -5.3e-5,-0.153699 0.0021,-0.230476 4.2e-5,-0.0016 -3.5e-5,-0.003 0,-0.0047 z m 7.29723,0 c 0.0064,0.08241 0.01191,0.164957 0.0155,0.247531 -0.0064,0.104804 0.0021,0.204157 0.0083,0.308506 0.0042,0.106318 0.0011,0.212117 0.0088,0.318329 0.0108,0.09433 0.0093,0.189047 0.0067,0.283702 h 11.320756 v -1.158068 z"/>
        </clipPath>
        <filter style="color-interpolation-filters:sRGB" id="filter1514" x="-1.2494368e-06" width="1.0000025" y="-1.1629062e-06" height="1.0000023">
        <feGaussianBlur stdDeviation="1.6769328e-05" id="feGaussianBlur1516"/>
        </filter>
        <clipPath clipPathUnits="userSpaceOnUse" id="clipPath1550">
        <path id="path1552" style="fill:#ff0000;fill-opacity:1;fill-rule:nonzero;stroke:none;stroke-width:0.264583" d="m 66.68991,40.286521 v 0.559506 h 4.935558 c 0.0073,-0.01852 0.0158,-0.03738 0.02441,-0.0564 0.0024,-0.04193 0.0031,-0.04252 0.01091,-0.236979 0.0063,-0.07636 0.01239,-0.152543 0.01848,-0.228921 0.0011,-0.01241 0.0019,-0.02479 0.0026,-0.03721 z m 6.895374,0 c -0.0038,0.08383 -0.0072,0.142387 -0.02346,0.171809 0.0076,0.134725 0.0048,0.272233 -0.0095,0.387697 h 43.976406 v -0.559506 z"/>
        </clipPath>
    </defs>
    <g id="layer1" transform="translate(-24.342183,-26.230859)">
        <text id="c-letter" font-weight="100" style="font-size:45.8758px;line-height:1.25;font-family:'Century Gothic';-inkscape-font-specification:'Century Gothic, Normal';fill:#fff;stroke-width:0;stroke-miterlimit:4;stroke:#000;filter:url(#filter1514)" x="70.577148" y="58.289524" id="text16" transform="matrix(0.99506803,0,0,1.0336465,-3.8192498,0.89634776)">
        <tspan id="tspan14" x="70.577148" y="58.289524" style="opacity:1;fill:#fff;stroke-width:4;stroke-miterlimit:4;stroke:#000;">С</tspan>
        </text>
        <path style="fill:none;stroke:url(#linearGradient2917);stroke-width:0.465;stroke-linecap:butt;stroke-linejoin:miter;stroke-miterlimit:4;stroke-dasharray:none;stroke-opacity:1" d="m 66.72426,47.624999 50.83781,0.09449" id="path62" clip-path="url(#clipPath1822)" transform="matrix(2.1806348,0,0,2.1806348,-88.379175,-51.82058)"/>
        <path style="mix-blend-mode:normal;fill:#ffffff;fill-opacity:1;stroke:url(#linearGradient2909);stroke-width:0.465;stroke-linecap:butt;stroke-linejoin:miter;stroke-miterlimit:4;stroke-dasharray:none;stroke-opacity:1" d="m 66.690359,40.51887 50.837791,0.09449" id="path62-6" clip-path="url(#clipPath1550)" transform="matrix(2.1806348,0,0,2.1806348,-88.379175,-51.82058)"/>
        <path style="fill:#ffffff;fill-opacity:0;stroke:none;stroke-width:1.014;stroke-miterlimit:4;stroke-dasharray:none;stroke-opacity:0" id="path924" d="m 165.71893,45.072854 c 0.35908,-0.0105 0.71673,-0.0551 1.07492,-0.0835 0.24715,-0.0194 0.49581,-0.0314 0.74346,-0.0127 0.0763,0.006 0.22031,0.0227 0.30015,0.0478 0.0109,0.004 0.0196,0.0146 0.0301,0.0218 -0.0419,0.0407 -0.23651,-0.12877 -0.24262,-0.12268 -0.0109,0.0118 -0.007,0.0326 -0.0109,0.0489 -0.007,0.0257 -0.0109,0.0515 -0.0174,0.0771 -0.0369,0.13823 -0.0781,0.27865 -0.14152,0.40754 -0.007,0.0113 -0.0262,0.0431 -0.0196,0.0322 0.0249,-0.0428 0.0504,-0.0853 0.0755,-0.1279 0.0676,-0.0572 0.12386,-0.13129 0.20258,-0.17179 0.20847,-0.10709 0.40309,-0.12209 0.6148,-0.0529 -0.007,-0.0111 -0.0174,-0.0212 -0.0227,-0.0335 -0.004,-0.01 0.001,-0.0216 -0.001,-0.0322 -0.002,-0.0111 -0.007,-0.0218 -0.007,-0.0328 -0.002,-0.009 -0.009,-0.0358 -0.002,-0.028 0.0109,0.0157 0.0131,0.0356 0.0196,0.0534 0.004,0.01 5e-5,0.0336 0.0109,0.03 0.0131,-0.005 0.007,-0.0259 0.0131,-0.0383 0.0255,-0.0613 0.0682,-0.11151 0.10598,-0.1652 0.10838,-0.14015 0.23959,-0.26022 0.35719,-0.39258 0.16703,-0.21198 0.2801,-0.41142 0.30112,-0.70051 0.009,-0.13431 -0.0238,-0.26931 -0.0554,-0.4002 -0.0316,-0.13031 -0.1208,-0.25583 -0.1908,-0.36756 -0.0898,-0.10932 -0.14305,-0.24004 -0.19866,-0.36877 -0.0578,-0.18093 -0.11143,-0.36301 -0.17227,-0.5429 -0.068,-0.17245 -0.13563,-0.34977 -0.23603,-0.50697 -0.027,-0.0423 -0.0571,-0.0826 -0.0857,-0.12388 -0.77009,-1.03224 -2.22989,0.0568 -1.4598,1.08909 v 0 c -0.055,-0.094 -0.0131,-0.0251 -0.007,-0.0111 0.0227,0.046 0.0449,0.0924 0.0632,0.14021 0.0779,0.22663 0.13607,0.45978 0.22627,0.68218 0.10096,0.23023 0.20694,0.46103 0.35982,0.66225 -0.0933,-0.22821 -0.10598,-0.5638 0.0835,-0.75144 -0.0545,0.0653 -0.11666,0.12301 -0.1751,0.18472 -0.11754,0.12397 -0.22945,0.25364 -0.32568,0.39519 -0.0951,0.14532 -0.13913,0.2036 -0.21817,0.36687 -0.14066,0.29084 -0.21174,0.60608 -0.21436,0.92875 0.0109,0.0955 0.0153,0.19197 0.0336,0.28654 0.0131,0.0693 0.0344,0.13686 0.0567,0.20376 0.0955,0.28753 0.25219,0.54988 0.46181,0.76867 0.0648,0.0588 0.12539,0.12235 0.1943,0.17621 0.13367,0.1045 0.31689,0.20644 0.47843,0.2522 0.28573,0.0809 0.52372,0.0747 0.81102,-0.0443 0.12604,-0.0522 0.22205,-0.15829 0.33309,-0.23742 0.0626,-0.0843 0.13084,-0.16468 0.18775,-0.25286 0.0462,-0.0715 0.12517,-0.26403 0.15439,-0.34121 0.0918,-0.24245 0.16508,-0.49255 0.20128,-0.74981 0.0196,-0.27092 0.0473,-0.40713 -5.7e-4,-0.67927 -0.073,-0.41446 -0.2523,-0.76774 -0.59047,-1.02944 -0.10424,-0.0807 -0.2286,-0.13151 -0.34289,-0.19728 -0.099,-0.0313 -0.19625,-0.0688 -0.29702,-0.094 -0.0909,-0.0227 -0.18383,-0.0368 -0.27655,-0.0494 -0.41513,-0.0567 -0.83595,-0.044 -1.25242,-0.012 -0.31018,0.0248 -0.62018,0.0608 -0.93053,0.0778 -1.28786,0 -1.28786,1.82131 0,1.82131 z"/>
        <path style="fill:#ffffff;fill-opacity:0;stroke:none;stroke-width:1.014;stroke-miterlimit:4;stroke-dasharray:none;stroke-opacity:0" id="path926" d="m 156.02987,53.997532 c 1.39689,-0.0109 2.79335,0.0142 4.18985,0.044 1.79255,0.0434 3.58435,0.12076 5.37234,0.25775 0.78896,0.0605 2.03482,0.16484 2.84966,0.30204 0.2741,0.0462 0.5418,0.12447 0.8127,0.1867 0.0432,0.0516 0.17816,0.20126 0.12931,0.15496 -0.15243,-0.14451 -0.2716,-0.32591 -0.44088,-0.45027 -0.0611,-0.0448 -0.15592,-0.0712 -0.224,-0.0381 -0.26298,0.12739 -0.47452,0.34194 -0.72248,0.49659 -0.91559,0.57105 -1.40612,0.79647 -2.38932,1.30373 -1.26493,0.61912 -2.5604,1.1729 -3.86346,1.70592 -0.53598,0.21925 -1.08079,0.41804 -1.60885,0.65607 -0.009,0.54928 -0.23601,1.14147 -0.0231,1.64784 0.0973,0.23124 0.49777,0.0728 0.74861,0.0773 0.10445,0.002 0.20542,-0.0367 0.30762,-0.0583 0.17096,-0.036 0.40239,-0.0899 0.56555,-0.15537 0.094,-0.0377 0.1823,-0.0887 0.27349,-0.13306 0.15701,-0.23857 0.46638,-0.43015 0.471,-0.7157 0.0153,-0.9451 -0.73568,-1.14011 -1.38433,-1.40581 -0.8754,-0.35857 -0.47034,-0.18723 -1.4554,-0.62965 -0.8523,-0.43308 -1.28642,-0.63471 -2.12627,-1.14735 -0.39186,-0.2392 -0.78207,-0.48284 -1.15312,-0.75319 -0.60788,-0.44288 -1.24419,-0.9681 -1.67748,-1.59819 -0.14719,-0.21392 -0.22469,-0.46813 -0.33704,-0.7022 0.0153,-0.16594 -0.0153,-0.34303 0.0475,-0.49786 0.11863,-0.29696 0.69349,-0.68684 0.89932,-0.80025 0.80677,-0.44446 1.50234,-0.64999 2.42678,-0.8038 0.54789,-0.0912 1.1053,-0.11091 1.65794,-0.16638 1.26269,0.0444 1.97199,-0.01 3.18481,0.32576 0.39413,0.10903 1.38551,0.39224 1.52902,0.9922 0.0305,0.12743 -0.12495,0.23678 -0.22334,0.32345 -0.18274,0.16128 -0.4044,0.27239 -0.60661,0.40859 -0.50449,0.24895 -0.98837,0.54491 -1.51345,0.74686 -1.82902,0.70347 -3.53773,1.05997 -5.46783,1.43389 -1.66812,0.32316 -3.64803,0.63082 -5.35941,0.80097 -0.56047,0.0557 -1.1242,0.0711 -1.68633,0.10674 -0.2796,-0.0254 -0.86567,-0.35562 -0.83884,-0.0762 0.11208,1.1688 1.21973,0.90409 1.80469,0.73228 0.78492,-0.23054 1.54033,-0.55379 2.32344,-0.79045 2.82709,-0.85437 3.7326,-0.99601 6.66387,-1.64783 2.14162,-0.3756 3.53213,-0.69189 5.63773,-0.82668 0.42391,-0.0271 1.08425,0.40611 1.27408,0.0261 0.11274,-0.2257 -1.44051,-1.07266 -1.69381,-1.04549 -0.83069,0.0891 -1.61321,0.43526 -2.41981,0.65289 -2.18899,0.62943 -3.78002,1.03489 -5.90913,1.85536 -0.82659,0.31854 -1.65032,0.65411 -2.43334,1.06838 -0.70531,0.37315 -2.33509,1.28268 -2.45161,2.36162 -0.0619,0.57377 0.31598,1.11013 0.47399,1.66519 0.50516,0.32397 0.97679,0.70743 1.51549,0.97191 0.72722,0.35702 2.34859,0.76389 3.1387,0.99711 0.7868,0.23224 1.34672,0.35235 2.0247,0.77669 0.16311,0.10212 0.29244,0.2503 0.43868,0.37545 0.0373,0.0958 0.10358,0.18494 0.11165,0.28739 0.007,0.0746 -0.0534,0.14004 -0.0722,0.21242 -0.0307,0.11771 -0.0449,0.23932 -0.0761,0.3569 -0.0715,0.26923 -0.17096,0.53405 -0.28115,0.78966 2.35191,-0.57111 0.86225,-0.70445 1.74255,0.3921 0.0563,0.0703 0.0414,-0.17534 0.0615,-0.26319 0.0894,-0.39398 0.16726,-0.73924 0.24105,-1.14101 0.0451,-0.24521 0.0829,-0.49172 0.1243,-0.73758 0.0238,-0.27302 0.065,-0.54508 0.0713,-0.81905 0.007,-0.28706 0.007,-0.57634 -0.0329,-0.86076 -0.0901,-0.65085 -0.27522,-1.21364 -0.64613,-1.76319 -0.49801,-0.73788 -0.7937,-0.85938 -1.50141,-1.3784 -0.30659,-0.15317 -0.60495,-0.3241 -0.91979,-0.45948 -0.30021,-0.12907 -0.61077,-0.23349 -0.92219,-0.33251 -0.88813,-0.28239 -1.80947,-0.44461 -2.72832,-0.5871 -0.11536,-0.0166 -0.23069,-0.0323 -0.34583,-0.05 -0.14741,-0.0226 -0.22737,-0.0328 -0.36087,-0.0709 -0.18797,-0.0535 -0.36964,-0.13784 -0.54948,-0.21193 -0.70376,-0.30451 -1.43211,-0.56029 -2.11059,-0.92079 -0.0979,-0.052 -0.19146,-0.11156 -0.2873,-0.16732 -0.0656,-0.0467 -0.13585,-0.0875 -0.19691,-0.14002 -0.0844,-0.0726 0.0257,-0.24381 0.11819,0.11372 0.046,0.17807 0.0408,0.36658 0.0382,0.55051 -5.9e-4,0.053 -0.0829,0.1118 -0.048,0.15175 0.0329,0.0377 0.0964,-0.0273 0.14457,-0.041 0.65829,-0.21723 1.28697,-0.25248 1.97321,-0.17312 0.16312,0.019 0.32457,0.0488 0.48687,0.0732 0.65437,0.11387 1.29556,0.29112 1.9486,0.41157 0.43022,0.0794 0.60687,0.0976 1.0401,0.15567 1.07627,0.12805 2.1612,0.15326 3.24393,0.14962 1.49225,-0.0203 2.98202,-0.11575 4.47128,-0.20583 1.67506,-0.094 3.35375,-0.23518 4.99854,-0.58037 0.34339,-0.0721 0.6825,-0.16318 1.02372,-0.24475 0.70821,-0.22914 1.14531,-0.33076 1.79473,-0.6917 0.25116,-0.1396 0.49967,-0.29149 0.71451,-0.48233 0.21261,-0.1888 0.42162,-0.39612 0.55628,-0.64651 0.14937,-0.2778 0.27212,-0.58919 0.27785,-0.90456 0.007,-0.36163 -0.16136,-0.70514 -0.24218,-1.05771 -0.27048,-0.31928 -0.49653,-0.6823 -0.81146,-0.95785 -0.6886,-0.60246 -1.89516,-1.181 -2.71312,-1.50371 -1.2548,-0.49507 -2.64234,-0.8704 -3.96398,-1.1201 -0.73544,-0.13895 -1.48139,-0.21497 -2.22209,-0.32246 -1.49552,-0.0847 -2.69672,-0.23763 -4.18405,-0.002 -0.6056,0.0961 -1.21679,0.22779 -1.77597,0.47938 -0.52776,0.23744 -1.05898,0.53349 -1.44114,0.96806 -0.40497,0.4605 -0.72469,1.03236 -0.84654,1.63336 -0.13237,0.65336 0.0737,1.33128 0.11055,1.99691 0.40793,0.67877 0.69983,1.44251 1.2238,2.0363 1.28884,1.46057 3.19282,2.48332 4.97891,3.14773 2.04842,0.762 4.34838,1.16804 6.52891,1.23156 1.01707,0.0296 2.03198,-0.1105 3.04798,-0.16573 1.22124,-0.29705 3.17206,-0.53212 4.16717,-1.55742 1.11372,-1.14751 0.81567,-2.26283 -0.3622,-3.29612 -1.09919,-0.96428 -3.23792,-1.17481 -4.54011,-1.42582 -0.83764,-0.0321 -1.67479,-0.1111 -2.51294,-0.0965 -1.26045,0.0221 -2.4854,0.17844 -3.70487,0.4812 -0.24886,0.0618 -0.69709,0.002 -0.7252,0.25641 -0.26056,2.36088 0.49627,1.78757 1.76004,1.55305 1.74939,-0.52049 1.09756,-0.30679 2.80872,-0.8938 0.31818,-0.10914 0.63077,-0.23536 0.95305,-0.33173 0.0545,-0.0164 0.20847,0.0381 0.17052,-0.004 -1.28149,-1.4283 -0.84528,-1.37392 -1.8785,-0.3449 -0.68499,0.74936 -1.52806,1.58306 -2.01807,2.48744 -0.23135,0.42694 -0.47944,0.88294 -0.50061,1.36806 -0.0218,0.49219 0.0347,1.07593 0.37856,1.42867 1.14245,1.17177 2.30118,0.66579 3.62153,0.47114 1.0727,-0.48446 2.42726,-0.86191 3.04617,-2.02668 0.84312,-1.58673 0.17838,-2.64116 -1.21851,-3.65455 -1.50323,-1.09046 -4.07825,-1.4967 -5.7798,-1.89733 -2.45036,-0.33132 -2.87789,-0.46315 -5.14819,-0.53494 -0.29945,-0.009 -0.86164,-0.26172 -0.89808,0.0357 -0.30042,2.45099 1.11819,1.96515 2.62466,2.06965 0.77729,0.0539 1.55501,0.10144 2.33251,0.15214 0.66451,0.0579 1.33089,0.0973 1.99352,0.17358 0.48421,0.0558 2.79485,0.81411 0.38268,-1.34196 -0.25357,-0.22665 -0.67944,0.0342 -1.01836,0.0624 -0.57649,0.048 -1.15137,0.11391 -1.72747,0.16616 -0.46701,0.0424 -0.93454,0.0784 -1.40178,0.1176 -0.15156,0.0116 -0.49333,-0.11208 -0.4544,0.0347 0.17052,0.64371 0.35461,1.43539 0.93207,1.76711 0.56633,0.32532 1.30419,-0.0736 1.95642,-0.10786 0.87807,-0.046 3.78752,-0.18751 4.72441,-0.24197 0.42801,-0.0249 0.85548,-0.0587 1.28321,-0.0881 -0.0196,-0.61886 0.36083,-1.40075 -0.0582,-1.85659 -0.39044,-0.42474 -1.15181,-0.0734 -1.72857,-0.0872 -1.20447,-0.0288 -3.12088,0.005 -4.33451,0.014 -1.45675,0.0111 -1.84087,0.0563 -1.30945,-0.003 0.282,0.58091 0.31303,1.3781 0.84598,1.74273 0.44592,0.30509 1.07985,-0.0411 1.61995,-0.0556 0.51171,-0.0137 1.02357,-0.0212 1.53541,-0.0292 0.27188,-0.004 0.73986,0.25296 0.81571,-0.008 0.64662,-2.2265 -0.29816,-1.81752 -1.44603,-1.78709 -0.45643,0.0166 -0.9129,0.0314 -1.36926,0.0494 -0.72591,0.0287 -2.52018,-0.17832 -0.79124,1.88001 0.31523,0.3753 0.97997,0.023 1.47003,0.0318 0.70227,0.0127 1.40459,0.0216 2.10688,0.0323 0.74332,0.0142 1.48663,0.0283 2.22996,0.0425 0.59229,0.017 1.18476,0.0288 1.77689,0.051 0.87531,0.0329 2.14475,0.43324 0.50936,-1.70572 -0.1943,-0.25411 -0.6395,0.0183 -0.95926,0.0265 -1.87969,0.0486 -1.16736,0.0337 -3.06463,0.0543 -0.94766,-0.038 -1.9297,0.0232 -2.85641,-0.23141 -0.25101,-0.069 -0.23156,-0.0256 -0.25566,-0.14534 -1.05948,-0.73218 -2.09493,0.76613 -1.03547,1.49832 v 0 c 0.13258,0.0808 0.25686,0.17739 0.39786,0.24254 0.40413,0.18668 0.88422,0.28331 1.3181,0.33848 0.87585,0.11136 1.55325,0.0988 2.45149,0.1186 1.1468,-0.0127 1.97352,-0.0144 3.11794,-0.0557 0.41816,-0.0151 1.01254,0.27937 1.25378,-0.0625 1.44707,-2.05092 0.0451,-1.86596 -0.82489,-1.89862 -0.59798,-0.0224 -1.1963,-0.0343 -1.79447,-0.0514 -1.80698,-0.0344 -2.55616,-0.0514 -4.34223,-0.0749 -0.4088,-0.005 -0.95996,-0.32153 -1.22648,-0.0116 -0.39203,0.45605 -0.48525,1.20996 -0.2939,1.78011 0.23668,0.70526 2.26572,-1.20538 2.23002,-0.0882 1.13291,-0.0302 2.08271,0.31826 1.37928,-1.85478 -0.0855,-0.2639 -0.55478,0.004 -0.83211,0.008 -0.10663,0.002 -3.16532,0.053 -3.21565,0.0869 -0.60467,0.40793 -0.78102,1.23211 -1.17151,1.84816 0.804,0.13112 0.26419,0.063 1.74794,0.0517 2.6627,-0.0203 1.56122,-0.0305 4.25526,-0.0148 0.42512,0.002 0.97209,0.312 1.27531,0.014 0.41968,-0.41245 0.29861,-1.13835 0.4479,-1.70753 -0.41775,0.0287 -0.83521,0.0619 -1.25323,0.0862 -0.93497,0.0543 -3.85748,0.19648 -4.72978,0.24226 -0.65626,0.0344 -1.44164,-0.28425 -1.96848,0.10855 -0.53099,0.39591 -0.60425,1.20884 -0.68079,1.86673 -0.0174,0.15533 0.31185,-0.0239 0.46776,-0.0358 0.67988,-0.0571 2.63909,-0.21558 3.21493,-0.293 0.56996,-0.0766 1.34498,0.15679 1.6997,-0.29586 1.50431,-1.91955 -0.34136,-1.95217 -1.14422,-2.04473 -0.67569,-0.0779 -1.3552,-0.11771 -2.03279,-0.17656 -0.77288,-0.0504 -1.5459,-0.0987 -2.31863,-0.15121 -1.56545,-0.10637 -2.47907,-0.74874 -2.67465,1.56628 -0.0196,0.23502 0.47086,-0.0441 0.70663,-0.037 2.14856,0.0648 2.5204,0.18336 4.84668,0.49134 2.99113,0.67852 2.39576,0.39941 4.94749,1.45425 0.32611,0.13481 0.69421,0.21791 0.95621,0.45429 0.61411,0.55401 -0.1762,1.17501 -0.56012,1.45438 -0.39439,0.28704 -0.87404,0.43338 -1.31106,0.65007 -0.3911,0.0952 -0.7934,0.15256 -1.17329,0.28557 -0.16987,0.0594 -0.28296,0.24367 -0.45789,0.28551 -0.1062,0.0254 -0.30533,0.008 -0.3117,-0.10147 -0.0174,-0.30658 0.11077,-0.61394 0.25404,-0.8856 0.43534,-0.82571 1.21313,-1.58864 1.83014,-2.26507 1.04154,-1.05922 1.42732,-0.93556 0.34387,-2.74337 -0.0916,-0.15286 -0.35569,0.0406 -0.52713,0.0893 -0.3194,0.0907 -0.62669,0.21954 -0.94068,0.32746 -1.61685,0.55574 -0.99941,0.35292 -2.61702,0.84011 -1.0258,0.29589 -1.21551,0.113 -0.73411,1.9334 0.0416,0.15766 0.29702,-0.13937 0.45503,-0.17967 0.43536,-0.11105 0.87472,-0.21256 1.31989,-0.27309 1.92827,-0.26218 2.19381,-0.16606 4.20645,-0.10574 5.40446,0.94432 -0.57894,-0.21932 3.53269,0.8706 0.20934,0.0555 0.46559,-0.0685 0.64811,0.0482 0.12975,0.0829 0.2263,0.33043 0.12364,0.44514 -0.78913,0.88114 -2.36095,1.05295 -3.34468,1.30614 -0.91861,0.0574 -1.83561,0.19229 -2.7558,0.17221 -1.99587,-0.0436 -4.04957,-0.39529 -5.93318,-1.06466 -1.60527,-0.57048 -3.01292,-1.31965 -4.23946,-2.50397 -0.37389,-0.36102 -0.6242,-0.83121 -0.93632,-1.24682 -0.15657,-0.67297 -0.47505,-1.28166 -0.0109,-1.93955 0.49182,-0.69612 1.51122,-0.98161 2.27019,-1.10894 1.34458,-0.22557 2.45346,-0.0856 3.80946,-0.0133 0.68895,0.0978 1.38263,0.16654 2.06685,0.29326 1.68873,0.31277 3.38515,0.80125 4.91753,1.58984 0.61167,0.31476 0.79373,0.47276 1.27002,0.83117 0.0445,0.0249 0.27016,0.11272 0.24484,0.22714 -0.0589,0.26645 -0.41517,0.49002 -0.60174,0.59837 -0.51718,0.30038 -0.87913,0.38314 -1.45514,0.57352 -0.30799,0.0746 -0.61394,0.15812 -0.92396,0.22369 -1.57326,0.33272 -3.17984,0.46426 -4.78237,0.55426 -1.45496,0.088 -2.9104,0.18156 -4.36825,0.20252 -1.00001,0.005 -2.00212,-0.0183 -2.99645,-0.13367 -0.36011,-0.0477 -0.56007,-0.0695 -0.91578,-0.13472 -0.68736,-0.12611 -1.36148,-0.31669 -2.05154,-0.42956 -0.51535,-0.0729 -0.72201,-0.11767 -1.24434,-0.12897 -0.7647,-0.0166 -1.52136,0.10491 -2.23728,0.37596 -0.33783,0.17233 -0.79437,0.3396 -0.96574,0.72935 -0.11885,0.27023 -0.15461,0.58301 -0.12495,0.87673 0.0174,0.18422 0.15351,0.3398 0.26233,0.48955 0.15068,0.20738 0.41829,0.36383 0.62436,0.50384 0.13062,0.0743 0.25893,0.15297 0.3919,0.22301 0.71595,0.37703 1.47978,0.65279 2.22216,0.97101 0.20759,0.0849 0.37812,0.15888 0.58918,0.2297 0.3501,0.11747 0.71555,0.16959 1.08033,0.218 1.0604,0.16302 2.13323,0.35508 3.13318,0.75812 0.2279,0.0918 0.44546,0.20755 0.66821,0.31134 0.41967,0.27478 0.63516,0.3643 0.94592,0.75375 0.38316,0.48019 0.47346,1.00788 0.46633,1.60724 -0.002,0.22359 -0.0349,0.44584 -0.0526,0.66876 -0.11252,0.67303 -0.0996,0.64219 -0.23531,1.28523 -0.0342,0.16207 -0.072,0.32336 -0.10838,0.48492 -0.0818,0.36218 -0.31414,1.11461 0.19801,1.30906 0.46314,0.17584 0.96741,-0.21414 1.45112,-0.3212 0.38966,-0.93806 0.71405,-2.02045 0.30322,-3.01881 -0.11797,-0.28659 -0.35507,-0.50802 -0.53262,-0.76203 -0.25878,-0.19578 -0.4973,-0.42167 -0.77631,-0.58734 -0.7949,-0.47202 -1.43307,-0.62785 -2.32314,-0.89007 -2.04781,-0.6033 -0.80009,-0.17619 -2.76622,-0.8458 -0.27107,-0.0923 -0.53968,-0.19175 -0.80952,-0.28764 -0.14566,0.0341 -0.37164,0.2369 -0.43693,0.10232 -0.092,-0.18965 0.044,-0.4541 0.19451,-0.60172 0.39797,-0.39036 0.88879,-0.68138 1.38071,-0.94356 0.73564,-0.39209 1.50964,-0.71091 2.28721,-1.01137 2.0851,-0.80569 3.64807,-1.20301 5.79639,-1.82093 0.77683,-0.2105 4.03792,-0.84155 4.52998,-1.91388 0.21392,-0.46613 -0.41414,-1.02734 -0.86447,-1.27277 -0.43881,-0.23917 -1.00052,-0.0481 -1.49923,-0.0155 -2.17464,0.14209 -3.6315,0.47158 -5.83579,0.85945 -2.93394,0.6543 -4.02157,0.83509 -6.85873,1.70275 -0.42697,0.13057 -3.96158,1.17071 -4.31384,1.99448 -0.22572,0.52785 0.21996,1.20238 0.63204,1.60209 0.26385,0.25597 0.73339,0.0521 1.1001,0.0781 0.59852,-0.039 1.19876,-0.0573 1.79556,-0.11705 1.74226,-0.17456 3.82935,-0.49732 5.52261,-0.82897 1.8103,-0.3546 4.23015,-0.85692 5.95355,-1.61575 0.73132,-0.32201 1.37794,-0.80954 2.06691,-1.2143 0.33255,-0.53986 0.86153,-1.00028 0.99769,-1.61956 0.11143,-0.50722 -0.0558,-1.07246 -0.30579,-1.52772 -0.22764,-0.41469 -0.64835,-0.70716 -1.05434,-0.94998 -0.44561,-0.26653 -0.95449,-0.41985 -1.45667,-0.55191 -1.41813,-0.37296 -2.21639,-0.30398 -3.68564,-0.34187 -0.63997,0.0713 -1.28688,0.0958 -1.91992,0.21377 -1.07819,0.20092 -2.26611,0.55485 -3.17858,1.20288 -0.80814,0.57394 -1.38374,1.26478 -1.51076,2.28008 -0.0513,0.40944 0.10467,0.8186 0.15678,1.22791 0.19692,0.35639 0.35224,0.73931 0.59104,1.06917 0.53862,0.74404 1.30782,1.38028 2.04274,1.91209 0.40252,0.29128 0.82543,0.55391 1.24996,0.81206 0.90317,0.54919 1.3601,0.75978 2.27808,1.22416 0.93641,0.41947 0.6898,0.31991 1.51925,0.65683 0.12953,0.0526 0.25791,0.10823 0.38957,0.15511 0.0273,0.01 0.0903,0.0429 0.0859,0.0142 -0.1738,-1.11467 -0.44934,-0.45538 0.24103,-1.33226 0.0672,-0.001 0.0826,-0.005 -0.0911,0.0441 -0.072,0.0203 -0.14523,0.036 -0.21824,0.0522 -0.0661,0.0146 -0.24591,-0.008 -0.19888,0.0405 0.83641,0.86511 0.50565,-2.33326 0.26874,1.738 0.34045,-0.15705 0.11492,-0.0566 0.69164,-0.2873 0.28749,-0.115 0.57592,-0.22765 0.86248,-0.34493 1.34953,-0.55231 2.69093,-1.12675 4.00027,-1.76961 0.90978,-0.4713 1.75999,-0.87973 2.61613,-1.44287 0.51382,-0.33799 1.59328,-1.05376 1.69773,-1.7802 0.0608,-0.42376 -0.13433,-0.87376 -0.37352,-1.22885 -0.15592,-0.23149 -0.48681,-0.27321 -0.73021,-0.40982 -0.32683,-0.0721 -0.65039,-0.1611 -0.9805,-0.21623 -0.84284,-0.14078 -2.14036,-0.25015 -2.96049,-0.31281 -1.8153,-0.13866 -3.63442,-0.21725 -5.4543,-0.26133 -1.40941,-0.0299 -2.81875,-0.0552 -4.22855,-0.0444 -1.28784,0 -1.28784,1.8213 0,1.8213 z"/>
        <path style="fill:none;stroke:#ffffff;stroke-width:1.014;stroke-linecap:butt;stroke-linejoin:miter;stroke-miterlimit:4;stroke-dasharray:none;stroke-opacity:1" d="m 167.39875,36.769767 v 1.735384" id="path1324"/>
        <path style="fill:#ffffff;stroke:#feffff;stroke-width:1.014;stroke-linecap:butt;stroke-linejoin:miter;stroke-miterlimit:4;stroke-dasharray:none;stroke-opacity:1;paint-order:fill markers stroke" d="m 167.4735,50.244991 v 1.73538" id="path1324-6"/>
        <text style="font-size:23.0783px;line-height:1.25;font-family:'Century Gothic';-inkscape-font-specification:'Century Gothic, Normal';fill:#ffffff;stroke-width:0.577868;stroke-miterlimit:4;stroke-dasharray:none" x="55.036495" y="50.38369" id="text12"><tspan id="tspan10" x="55.036495" y="50.38369" style="fill:#ffffff;stroke-width:0.577868;stroke-miterlimit:4;stroke-dasharray:none">и торирис</tspan></text>
        <path style="opacity:1;fill:url(#linearGradient2866);fill-opacity:1;stroke:url(#linearGradient2888);stroke-width:1.014;stroke-linecap:butt;stroke-linejoin:miter;stroke-miterlimit:4;stroke-dasharray:none;stroke-opacity:1" d="m 24.34431,41.629376 30.723099,-0.14424" id="path1946" clip-path="url(#clipPath514)" transform="translate(0,0.23386084)"/>
        <path style="opacity:1;fill:#ffffff;fill-opacity:1;stroke:url(#linearGradient2896);stroke-width:1.014;stroke-linecap:butt;stroke-linejoin:miter;stroke-miterlimit:4;stroke-dasharray:none;stroke-opacity:1" d="M 24.464495,47.154889 55.187596,47.01064" id="path1946-1" clip-path="url(#clipPath524)" transform="translate(0,0.23386084)"/>
        <path style="fill:#ffffff;stroke:#fbffff;stroke-width:1.014;stroke-linecap:butt;stroke-linejoin:miter;stroke-miterlimit:4;stroke-dasharray:none;stroke-opacity:1" d="m 55.048502,41.209797 v 6.540304" id="path2697"/>
    </g>
</svg>